PathFileType	4	(X/Y/Z)	D:\TRACE\spot_10-12-23\spot_arm_body_motion_1_8-v60.trc
DataRate	CameraRate	NumFrames	NumMarkers	Units	OrigDataRate	OrigDataStartFrame	OrigNumFrames
100.00	100.00	      21	9	mm	100.00	5251	      7000
Frame#	Time	front left toe			Front right toe			aft left toe			aft right toe			Arm			FL body			FR body			AL Body			AR Body			
		X1	Y1	Z1	X2	Y2	Z2	X3	Y3	Z3	X4	Y4	Z4	X5	Y5	Z5	X6	Y6	Z6	X7	Y7	Z7	X8	Y8	Z8	X9	Y9	Z9	

5251	52.500	-184.89650	29.45691	-420.56659	315.63434	29.80739	-445.77173	-138.57231	18.08891	213.10289	343.05737	24.81756	141.46512	65.98900	785.31085	-729.41504	-14.79921	619.57355	-453.71722	138.89032	622.46472	-456.05020	-5.55086	559.18170	426.55814	136.29732	556.41754	427.00299	
5252	52.510	-185.61456	29.28158	-420.62823	314.97330	29.33677	-445.94540	-139.69646	19.02474	212.65085	342.18704	24.87887	141.31224	65.48363	783.72272	-731.16400	-14.36553	618.31122	-454.51395	139.43161	621.41498	-457.24869	-5.17337	559.97211	425.97385	136.49490	557.16785	426.33017	
5253	52.520	-186.27037	29.07555	-420.83777	314.46832	28.80670	-445.94653	-140.47058	19.31960	212.32512	341.53793	24.83867	141.30774	64.99754	782.70917	-732.28491	-13.95100	617.20947	-455.34113	139.96497	619.68915	-457.75177	-4.87400	560.96094	425.30505	136.83908	557.93890	425.83188	
5254	52.530	-186.89314	28.85836	-420.97440	313.81253	28.54675	-445.89627	-141.17413	19.47016	212.23439	341.02972	24.65622	141.16182	64.03491	782.46936	-732.95581	-13.41612	615.94849	-455.84546	140.44684	618.33203	-458.62830	-3.74767	561.31494	424.56952	137.26759	558.31885	425.10132	
5255	52.540	-187.53052	28.51607	-421.02686	312.74738	28.01065	-446.15250	-141.86311	19.60165	212.04988	339.80994	24.11172	140.73410	63.33061	782.48297	-733.16748	-13.01133	614.72974	-456.48453	140.64777	616.72925	-459.03076	-3.90835	562.14447	424.25305	137.71042	558.63702	424.79712	
5256	52.550	-188.24849	28.20654	-421.28372	311.86389	27.49297	-446.08356	-142.31752	19.71885	212.09680	338.84970	23.99723	140.55194	62.61523	783.11609	-733.22211	-12.47515	613.45306	-457.08157	141.21222	614.94983	-458.85162	-3.40443	562.76648	423.98053	138.23389	559.03961	424.30258	
5257	52.560	-188.85300	28.11771	-421.25983	311.64966	27.40123	-445.91797	-143.03926	20.06821	211.91655	338.23032	23.98159	140.39973	61.89117	784.00311	-732.92761	-12.05696	612.32672	-457.48611	141.50438	613.75330	-459.35913	-2.89912	563.11322	423.30408	139.49315	559.31085	424.17795	
5258	52.570	-189.59517	27.89972	-421.31125	311.02536	27.05043	-446.02228	-144.40941	20.89460	211.71451	338.38028	24.67887	140.50311	61.34074	784.94623	-732.55353	-11.63166	611.61804	-457.99289	143.36607	613.42566	-459.67407	-1.62339	562.84589	422.91342	139.81471	559.39099	423.12793	
5259	52.580	-190.36295	27.54982	-421.34338	309.96893	26.53418	-446.39566	-144.64691	20.68868	211.62064	337.89380	24.74580	140.39990	60.82803	785.87878	-732.21735	-11.13052	610.83990	-458.36456	142.74471	612.09698	-460.40204	-1.05100	562.95831	422.79376	140.65860	559.32880	422.81531	
5260	52.590	-191.14699	27.35494	-421.37729	309.06854	26.07552	-446.63055	-145.17076	20.78091	211.50563	336.99838	24.60737	140.39313	60.58859	786.70972	-731.78809	-10.69687	610.21655	-458.58002	143.22049	611.52441	-460.71091	-0.02391	562.51202	422.44919	141.35260	559.03424	422.33435	
5261	52.600	-191.81674	27.19558	-421.53348	308.31073	25.61582	-446.51501	-145.79675	20.89037	211.45071	336.24606	24.39841	140.30096	60.29652	787.41187	-731.07874	-10.18555	609.52356	-458.71231	143.40576	611.23218	-460.91122	0.74558	561.94830	422.30490	142.30782	558.66156	422.17017	
5262	52.610	-192.40656	27.13105	-421.75217	307.81018	25.31736	-446.36658	-146.59961	21.08814	211.45848	335.68555	24.37185	140.35396	60.30076	787.78955	-730.73627	-9.60829	609.08667	-458.90759	143.92424	610.99768	-461.02325	1.49035	561.84149	422.43475	143.08347	558.34070	422.07993	
5263	52.620	-193.05011	26.95864	-421.81290	307.21176	25.04153	-446.45013	-146.85826	20.87358	211.61481	335.02051	24.47553	140.41774	60.28825	788.19818	-730.36273	-9.02631	608.74536	-458.97437	144.69337	610.68811	-460.96140	2.41518	561.65021	422.47943	144.17369	558.14484	422.44983	
5264	52.630	-193.90904	26.79693	-421.92889	306.06161	24.50272	-446.70587	-147.94658	21.65383	211.30083	333.42044	23.88018	139.88393	60.10196	788.15283	-730.21039	-8.28965	608.42963	-458.93246	145.51799	610.25940	-461.23889	3.28523	561.20288	422.00275	145.01498	558.12787	422.36884	
5265	52.640	-194.72003	26.55398	-421.99097	305.42184	24.09871	-446.82043	-149.10034	22.24631	211.18616	332.80261	23.86523	139.78389	59.81109	787.94751	-730.04944	-7.69589	608.06427	-458.81543	146.23753	610.02563	-461.15945	4.04127	560.79108	422.15042	145.73813	557.81775	422.09256	
5266	52.650	-195.49974	26.30111	-422.25082	304.95557	23.73599	-446.69489	-149.58893	22.13883	211.01367	332.75543	24.59886	139.94196	59.34812	787.58020	-729.91187	-6.86989	607.62909	-458.55353	147.03096	609.86688	-460.96570	4.66210	560.45129	422.19241	146.33725	557.55652	422.20276	
5267	52.660	-196.15868	26.08379	-422.38409	304.03516	23.12077	-447.02527	-150.24786	22.28832	210.90073	331.84955	24.55395	140.00900	58.90349	787.16101	-729.79120	-5.93088	607.36475	-458.40182	147.65634	610.27429	-461.63562	5.04351	560.55505	422.42056	146.99176	557.36053	422.38153	
5268	52.670	-196.97261	25.96125	-422.56073	303.05161	22.57306	-447.33575	-150.93141	22.48989	210.92862	331.10977	24.36333	140.08005	58.50134	786.54877	-729.75397	-5.00923	606.97931	-458.27646	148.79659	610.15686	-461.35626	6.03796	560.12592	422.69931	147.62779	557.26257	422.62433	
5269	52.680	-197.82381	25.89846	-422.68124	302.39761	22.20918	-447.28540	-151.92079	22.90503	210.83577	330.30060	24.27911	139.98026	58.02868	786.05280	-729.72906	-4.10385	606.69525	-458.15305	149.98135	609.91077	-460.99927	6.80504	559.70190	422.90610	148.40059	557.15869	422.95755	
5270	52.690	-198.50630	25.64907	-422.79715	301.80780	21.84221	-446.83435	-152.63452	23.18438	210.72002	329.52460	24.33254	140.08368	57.54296	785.68225	-729.73669	-3.10675	606.33081	-457.96207	150.99904	609.77271	-460.65500	7.50805	559.51172	423.16071	149.16447	557.20282	423.63403	
5271	52.700	-199.31351	25.41802	-422.95822	300.99701	21.40486	-446.84506	-153.27174	23.49244	210.49680	328.83469	24.24141	140.13681	56.83088	785.29633	-729.72559	-2.19157	605.88910	-457.50168	151.95589	609.43207	-460.48190	8.06607	559.13464	423.46988	149.85719	557.02032	424.02805	
